<mxfile host="65bd71144e">
    <diagram id="Q5syceaMITEqcyt1UoN2" name="Page-1">
        <mxGraphModel dx="1374" dy="790" grid="1" gridSize="10" guides="1" tooltips="1" connect="1" arrows="1" fold="1" page="1" pageScale="1" pageWidth="1200" pageHeight="1920" background="none" math="0" shadow="0">
            <root>
                <mxCell id="0"/>
                <mxCell id="1" parent="0"/>
                <mxCell id="EHreY45M39YBdrxDaspS-1" value="" style="shape=table;startSize=0;container=1;collapsible=0;childLayout=tableLayout;strokeWidth=1;perimeterSpacing=0;" parent="1" vertex="1">
                    <mxGeometry x="380" y="460" width="440" height="40" as="geometry"/>
                </mxCell>
                <mxCell id="EHreY45M39YBdrxDaspS-2" value="" style="shape=partialRectangle;collapsible=0;dropTarget=0;pointerEvents=0;fillColor=none;top=0;left=0;bottom=0;right=0;points=[[0,0.5],[1,0.5]];portConstraint=eastwest;strokeWidth=1;perimeterSpacing=0;" parent="EHreY45M39YBdrxDaspS-1" vertex="1">
                    <mxGeometry width="440" height="40" as="geometry"/>
                </mxCell>
                <mxCell id="EHreY45M39YBdrxDaspS-3" value="ガラクタ / 保留" style="shape=partialRectangle;html=1;whiteSpace=wrap;connectable=0;overflow=hidden;fillColor=none;top=0;left=0;bottom=0;right=0;pointerEvents=1;strokeWidth=1;perimeterSpacing=0;" parent="EHreY45M39YBdrxDaspS-2" vertex="1">
                    <mxGeometry width="123" height="40" as="geometry">
                        <mxRectangle width="123" height="40" as="alternateBounds"/>
                    </mxGeometry>
                </mxCell>
                <mxCell id="EHreY45M39YBdrxDaspS-4" value="思い出の品 / 卒業証書等" style="shape=partialRectangle;html=1;whiteSpace=wrap;connectable=0;overflow=hidden;fillColor=none;top=0;left=0;bottom=0;right=0;pointerEvents=1;strokeWidth=1;perimeterSpacing=0;" parent="EHreY45M39YBdrxDaspS-2" vertex="1">
                    <mxGeometry x="123" width="177" height="40" as="geometry">
                        <mxRectangle width="177" height="40" as="alternateBounds"/>
                    </mxGeometry>
                </mxCell>
                <mxCell id="EHreY45M39YBdrxDaspS-5" value="楽器 / スポーツ用品等" style="shape=partialRectangle;html=1;whiteSpace=wrap;connectable=0;overflow=hidden;fillColor=none;top=0;left=0;bottom=0;right=0;pointerEvents=1;strokeColor=default;strokeWidth=1;perimeterSpacing=0;" parent="EHreY45M39YBdrxDaspS-2" vertex="1">
                    <mxGeometry x="300" width="140" height="40" as="geometry">
                        <mxRectangle width="140" height="40" as="alternateBounds"/>
                    </mxGeometry>
                </mxCell>
            </root>
        </mxGraphModel>
    </diagram>
</mxfile>